<svg viewBox="0 0 200 40" xmlns="http://www.w3.org/2000/svg">
  <defs>
    <linearGradient id="textGradient" x1="0%" y1="0%" x2="100%" y2="0%">
      <stop offset="0%" stop-color="#0d9488"/>
      <stop offset="100%" stop-color="#22c55e"/>
    </linearGradient>
  </defs>
  
  <!-- Logo icon -->
  <g transform="translate(0, 0)">
    <!-- Outer petals -->
    <path
      d="M20 8 C15 8, 12 12, 12 16 L12 20 L8 20 C8 20, 8 12, 15 8 Z"
      fill="#0d9488"
      opacity="0.4"
    />
    <path
      d="M20 8 C25 8, 28 12, 28 16 L28 20 L32 20 C32 20, 32 12, 25 8 Z"
      fill="#0d9488"
      opacity="0.4"
    />
    
    <!-- Middle petals -->
    <path
      d="M12 20 C12 24, 14 28, 18 30 L20 32 L20 28 Z"
      fill="#a78bfa"
      opacity="0.5"
    />
    <path
      d="M28 20 C28 24, 26 28, 22 30 L20 32 L20 28 Z"
      fill="#a78bfa"
      opacity="0.5"
    />
    
    <!-- Center circle -->
    <circle cx="20" cy="20" r="8" fill="#22c55e" opacity="0.3"/>
    
    <!-- Lock icon -->
    <rect x="16" y="19" width="8" height="6" rx="1" fill="#0d9488"/>
    <path
      d="M17.5 19 L17.5 17 C17.5 15.5 18.5 14.5 20 14.5 C21.5 14.5 22.5 15.5 22.5 17 L22.5 19"
      stroke="#0d9488"
      stroke-width="2"
      fill="none"
      stroke-linecap="round"
    />
    <circle cx="20" cy="22" r="1" fill="white"/>
  </g>
  
  <!-- Text -->
  <text x="48" y="28" font-family="system-ui, -apple-system, sans-serif" font-size="20" font-weight="600" fill="url(#textGradient)">
    MindFocus
  </text>
</svg>

